# xmcd CD database file
#
# Track frame offsets:
#	150
#	11157
#	26124
#	40176
#	53785
#	64004
#	79594
#	97938
#	111056
#	128147
#	142148
#	157666
#	174099
#	184649
#	194830
#	206332
#
# Disc length: 2945 seconds
#
# Revision: 0
# Processed by: cddbd v1.4PL0 Copyright (c) Steve Scherf et al.
# Submitted via: CDex 1.51
#
DISCID=cf0b7f10
DTITLE=Lars  Dixi - Schietegol
DYEAR=2003
DGENRE=Blues
TTITLE0=Sünnenklor
TTITLE1=Buddel Beer
TTITLE2=Deit me leed
TTITLE3=Stormgebruus
TTITLE4=Kortenspeel
TTITLE5=Hinz and Kunz Blues
TTITLE6=Waak op
TTITLE7=Hamborg Jodler
TTITLE8=Snutenhobel
TTITLE9=Trüch to di
TTITLE10=Downtown Bluesclub
TTITLE11=Ick stah op Risiko
TTITLE12=Schietegol
TTITLE13=Wippsteert
TTITLE14=Vun Dag to Dag
TTITLE15=Buddel Beer 2
EXTD=YEAR: 2003
EXTT0=
EXTT1=
EXTT2=
EXTT3=
EXTT4=
EXTT5=
EXTT6=
EXTT7=
EXTT8=
EXTT9=
EXTT10=
EXTT11=
EXTT12=
EXTT13=
EXTT14=
EXTT15=
PLAYORDER=
